# xmcd
#
# Track frame offsets: 
#        150
#        11296
#        21255
#        31147
#        43413
#        54369
#        64241
#        74504
#        85667
#        97274
#        108589
#        119566
#        130358
#        139743
#        150308
#        160878
#        170613
#        183068
#        193431
#        205681
#        215396
#        225747
#        234229
#        243558
#        263307
#
# Disc length: 3700 seconds
#
# Revision: 0
# Processed by: cddbd v1.5.2PL0 Copyright (c) Steve Scherf et al.
# Submitted via: ExactAudioCopy v0.95b4
#
DISCID=5c0e7219
DTITLE=Little Richard  - The Very Best Of Little Richard  FLAC
DYEAR=1900
DGENRE=
TTITLE0=Tutti Frutti
TTITLE1=Long Tall Sally
TTITLE2=Good Golly Miss Molly
TTITLE3=Slippin' and Slidin' (Peepin' and Hidin')
TTITLE4=Rip It Up
TTITLE5=Ready Teddy
TTITLE6=Heeby-Jeebies
TTITLE7=She's Got It
TTITLE8=The Girl Can't Help It
TTITLE9=All Around the World
TTITLE10=Lucille
TTITLE11=Send Me Some Lovin'
TTITLE12=Jenny Jenny
TTITLE13=Miss Ann
TTITLE14=Keep A-Knockin'
TTITLE15=Ooh! My Soul
TTITLE16=True Fine Mama
TTITLE17=Baby Face
TTITLE18=Kansas City\\Hey Hey Hey Hey
TTITLE19=By the Light of the Silvery Moon
TTITLE20=Bama Lama Bama Loo
TTITLE21=Whole Lotta Shakin' Going On
TTITLE22=Hound Dog
TTITLE23=Baby
TTITLE24=Ain't That a Shame\\I Got a Woman\\Tutti Frutti
EXTD=
EXTT0=
EXTT1=
EXTT2=
EXTT3=
EXTT4=
EXTT5=
EXTT6=
EXTT7=
EXTT8=
EXTT9=
EXTT10=
EXTT11=
EXTT12=
EXTT13=
EXTT14=
EXTT15=
EXTT16=
EXTT17=
EXTT18=
EXTT19=
EXTT20=
EXTT21=
EXTT22=
EXTT23=
EXTT24=
PLAYORDER=
